<svg id="Capa_1" enable-background="new 0 0 497 497" height="512" viewBox="0 0 497 497" width="512" xmlns="http://www.w3.org/2000/svg"><g><path d="m317 262-227 190h-81.749c-4.685 0-8.297 4.263-7.38 8.857 4.114 20.611 22.308 36.143 44.129 36.143h317z" fill="#acd2f6"/><path d="m317 262v190c0 24.853 20.147 45 45 45h30v-235z" fill="#95b0ed"/><path d="m377 30v464.429c4.865 1.72 10.109 2.637 15.579 2.567 24.755-.314 44.421-21.018 44.421-45.774v-443.722c0-4.142-3.358-7.5-7.5-7.5h-22.5z" fill="#acd2f6"/><path d="m90 7.5v444.5h257c0 19.592 12.524 36.25 30 42.429 17.476-6.179 30-22.837 30-42.429v-452h-309.5c-4.142 0-7.5 3.358-7.5 7.5z" fill="#c4f3ff"/><path d="m467 362h-30l-30 30 30 30h30c16.569 0 30-13.431 30-30s-13.431-30-30-30z" fill="#ff336d"/><path d="m30 373.773-17.904 3.513c-6.893 1.354-12.096 7.424-12.096 14.714s5.203 13.36 12.096 14.713l17.904 3.514 20-18.227z" fill="#4e4cd3"/><path d="m90 362-60 11.773v36.454l60 11.773 30-30z" fill="#ffe7b5"/><path d="m407 362-30 30 30 30h30v-60z" fill="#fff"/><path d="m90 392v30h317v-30l-158.5-20z" fill="#ffb44e"/><path d="m90 362h317v30h-317z" fill="#ffd06a"/><path d="m332 173.5c-1.919 0-3.839-.732-5.304-2.197l-15-15c-2.929-2.929-2.929-7.678 0-10.606 2.93-2.929 7.678-2.929 10.607 0l9.696 9.697 24.696-24.697c2.93-2.929 7.678-2.929 10.607 0s2.929 7.678 0 10.606l-30 30c-1.463 1.465-3.383 2.197-5.302 2.197z" fill="#ff336d"/><path d="m332 113.5c-1.919 0-3.839-.732-5.304-2.197l-15-15c-2.929-2.929-2.929-7.678 0-10.606 2.93-2.929 7.678-2.929 10.607 0l9.697 9.697 24.696-24.697c2.93-2.929 7.678-2.929 10.607 0s2.929 7.678 0 10.606l-30 30c-1.464 1.465-3.384 2.197-5.303 2.197z" fill="#ff336d"/><path d="m287 158.5h-122c-4.143 0-7.5-3.358-7.5-7.5s3.357-7.5 7.5-7.5h122c4.143 0 7.5 3.358 7.5 7.5s-3.357 7.5-7.5 7.5z" fill="#4e4cd3"/><path d="m332 233.5c-1.919 0-3.839-.732-5.304-2.197l-15-15c-2.929-2.929-2.929-7.678 0-10.606 2.93-2.929 7.678-2.929 10.607 0l9.696 9.697 24.696-24.697c2.93-2.929 7.678-2.929 10.607 0s2.929 7.678 0 10.606l-30 30c-1.463 1.465-3.383 2.197-5.302 2.197z" fill="#ff336d"/><path d="m332 293.5c-1.919 0-3.839-.732-5.304-2.197l-15-15c-2.929-2.929-2.929-7.678 0-10.606 2.93-2.929 7.678-2.929 10.607 0l9.696 9.697 24.696-24.697c2.93-2.929 7.678-2.929 10.607 0s2.929 7.678 0 10.606l-30 30c-1.463 1.465-3.383 2.197-5.302 2.197z" fill="#ff336d"/><g fill="#4e4cd3"><path d="m287 98.5h-122c-4.143 0-7.5-3.358-7.5-7.5s3.357-7.5 7.5-7.5h122c4.143 0 7.5 3.358 7.5 7.5s-3.357 7.5-7.5 7.5z"/><path d="m287 218.5h-122c-4.143 0-7.5-3.358-7.5-7.5s3.357-7.5 7.5-7.5h122c4.143 0 7.5 3.358 7.5 7.5s-3.357 7.5-7.5 7.5z"/><path d="m287 278.5h-122c-4.143 0-7.5-3.358-7.5-7.5s3.357-7.5 7.5-7.5h122c4.143 0 7.5 3.358 7.5 7.5s-3.357 7.5-7.5 7.5z"/></g></g></svg>