<svg id="Capa_1" enable-background="new 0 0 497 497" height="512" viewBox="0 0 497 497" width="512" xmlns="http://www.w3.org/2000/svg"><g><path d="m474.136 497h-22.5l-60-248.5 60-248.5h22.5c4.142 0 7.5 3.358 7.5 7.5v482c0 4.142-3.358 7.5-7.5 7.5z" fill="#ff545a"/><path d="m451.636 497h-369.5c-4.142 0-7.5-3.358-7.5-7.5v-482c0-4.142 3.358-7.5 7.5-7.5h22.5l347 392z" fill="#ff7647"/><path d="m331.636 262-227 130h-81.749c-4.685 0-8.297 4.263-7.38 8.857 4.114 20.611 22.308 36.143 44.129 36.143h317z" fill="#c4f3ff"/><path d="m331.636 262v130c0 24.853 20.147 45 45 45h30v-175z" fill="#acd2f6"/><path d="m421.636 0-30 434.429c4.693 1.659 9.739 2.571 15 2.571 24.853 0 45-20.147 45-45v-392z" fill="#c4f3ff"/><path d="m391.636 0-113.5 30-113.5-30h-60v392h257c0 19.592 12.524 36.25 30 42.429 17.476-6.179 30-22.837 30-42.429v-392z" fill="#fff"/><path d="m361.636 0-30 60h30c16.569 0 30-13.431 30-30v-30z" fill="#95b0ed"/><path d="m361.636 30v-30h-197v30c0 16.569 13.431 30 30 30h137c16.568 0 30-13.431 30-30z" fill="#acd2f6"/><g fill="#4e4cd3"><circle cx="194.636" cy="30" r="7.5"/><circle cx="361.636" cy="30" r="7.5"/></g></g></svg>