<svg id="Capa_1" enable-background="new 0 0 497 497" height="512" viewBox="0 0 497 497" width="512" xmlns="http://www.w3.org/2000/svg"><g><circle cx="248.5" cy="248.5" fill="#95b0ed" r="248.5"/><path d="m248.5 30v437c120.674 0 218.5-97.826 218.5-218.5s-97.826-218.5-218.5-218.5z" fill="#c4f3ff"/><path d="m437 248.5c0-120.674-84.394-218.5-188.5-218.5-120.674 0-218.5 97.826-218.5 218.5s97.826 218.5 218.5 218.5c104.106 0 188.5-97.826 188.5-218.5z" fill="#fff"/><g fill="#3f6dde"><circle cx="411.746" cy="154.25" r="7.5"/><circle cx="342.75" cy="85.254" r="7.5"/><circle cx="248.5" cy="60" r="7.5"/><circle cx="154.25" cy="85.254" r="7.5"/><circle cx="85.254" cy="154.25" r="7.5"/><circle cx="60" cy="248.5" r="7.5"/><circle cx="85.254" cy="342.75" r="7.5"/><circle cx="154.25" cy="411.746" r="7.5"/><circle cx="248.5" cy="437" r="7.5"/><circle cx="342.75" cy="411.746" r="7.5"/><circle cx="411.746" cy="342.75" r="7.5"/></g><path d="m422 233.5h-30v30h30c8.28 0 15-6.72 15-15s-6.72-15-15-15z" fill="#452096"/><path d="m392 233.5h-132.52v30h132.52c8.28 0 15-6.72 15-15s-6.72-15-15-15z" fill="#5c2bc8"/><path d="m263.5 105c0-8.284-6.716-15-15-15s-15 6.716-15 15v132.523h30z" fill="#5c2bc8"/><path d="m236.983 249.41-105.863 105.864c-2.929 2.929-2.929 7.678 0 10.606 2.929 2.929 7.678 2.929 10.606 0l105.864-105.864z" fill="#ff545a"/><circle cx="248.5" cy="248.5" fill="#95b0ed" r="30"/><circle cx="248.5" cy="248.5" fill="#3f6dde" r="7.5"/></g></svg>